<?xml version="1.0" standalone="no"?>
<!DOCTYPE svg PUBLIC "-//W3C//DTD SVG 20010904//EN"
 "http://www.w3.org/TR/2001/REC-SVG-20010904/DTD/svg10.dtd">
<svg version="1.0" xmlns="http://www.w3.org/2000/svg"
 width="792.000000pt" height="792.000000pt" viewBox="0 0 792.000000 792.000000"
 preserveAspectRatio="xMidYMid meet">
<metadata>
Created by potrace 1.11, written by Peter Selinger 2001-2013
</metadata>
<g transform="translate(0.000000,792.000000) scale(0.100000,-0.100000)"
fill="#000000" stroke="none">
<path d="M2838 6690 l-3 -870 -745 430 c-409 237 -749 429 -755 427 -14 -5
-1058 -1815 -1051 -1825 2 -4 340 -201 750 -437 561 -324 742 -433 733 -441
-7 -6 -338 -199 -737 -429 -399 -230 -731 -423 -739 -430 -11 -11 76 -167 510
-921 288 -499 529 -909 534 -911 6 -2 345 190 755 427 l745 430 3 -870 2 -870
1060 0 1060 0 0 870 c0 479 2 870 5 870 4 0 341 -194 751 -430 410 -237 749
-430 753 -430 11 0 1062 1820 1057 1829 -3 4 -340 200 -750 437 -410 236 -746
431 -746 434 0 3 332 196 737 430 405 234 742 430 750 435 12 9 -81 177 -511
920 -288 500 -529 911 -534 913 -6 2 -346 -191 -756 -427 -410 -237 -748 -431
-751 -431 -3 0 -5 392 -5 870 l0 870 -1060 0 -1060 0 -2 -870z m2064 -93 l3
-893 769 444 c627 362 771 441 781 430 16 -17 987 -1699 983 -1703 -2 -1 -348
-201 -770 -445 -423 -243 -768 -446 -768 -450 0 -4 345 -206 768 -450 422
-243 768 -443 770 -445 4 -3 -968 -1687 -983 -1703 -10 -11 -149 65 -781 430
l-769 444 -3 -893 -2 -893 -995 0 -995 0 -2 894 -3 895 -769 -445 c-423 -244
-772 -444 -775 -444 -4 0 -229 385 -500 856 -390 675 -491 858 -480 865 8 5
355 206 771 447 417 240 758 440 758 443 0 3 -347 206 -770 450 -551 318 -769
448 -765 458 11 27 980 1701 985 1701 3 0 352 -200 775 -444 l770 -445 3 895
2 894 995 0 995 0 2 -893z"/>
<path d="M3005 7388 c-3 -7 -6 -425 -8 -929 l-2 -916 -800 463 c-440 254 -803
459 -806 456 -14 -15 -881 -1523 -885 -1539 -3 -15 152 -108 795 -478 440
-253 800 -462 800 -465 0 -3 -356 -210 -791 -460 -435 -250 -796 -459 -803
-465 -9 -7 100 -203 435 -782 246 -425 449 -775 451 -777 2 -2 364 205 804
459 l800 463 5 -927 5 -926 898 -3 897 -2 0 923 c0 508 2 926 6 929 3 3 363
-201 801 -454 437 -252 801 -457 807 -455 11 5 889 1518 893 1541 1 6 -357
218 -797 471 -440 253 -800 462 -800 465 0 3 358 212 796 464 437 253 797 463
800 467 3 6 -872 1535 -890 1556 -1 1 -357 -203 -791 -454 -435 -251 -798
-458 -807 -461 -17 -4 -18 45 -18 922 l0 926 -895 0 c-707 0 -897 -3 -900 -12z
m1047 -533 c25 -17 47 -42 59 -70 19 -42 19 -56 4 -566 -8 -288 -19 -731 -25
-984 -6 -253 -16 -483 -21 -510 -5 -29 -26 -75 -47 -107 -44 -66 -201 -258
-211 -258 -7 0 -11 86 -51 1055 -10 264 -22 542 -25 618 -7 161 -11 157 96
102 73 -37 128 -45 149 -20 7 8 30 20 51 25 21 6 44 20 49 31 23 41 1 80 -92
173 -99 97 -149 125 -219 126 l-46 0 -7 98 c-11 159 29 247 139 299 65 31 139
27 197 -12z m-218 -419 c42 -18 192 -150 211 -187 8 -15 15 -39 15 -53 0 -21
-7 -27 -39 -36 -21 -5 -44 -17 -51 -25 -19 -23 -48 -18 -129 22 -131 65 -205
54 -290 -43 -64 -73 -85 -153 -78 -307 8 -210 54 -323 183 -455 l81 -82 8
-176 c6 -147 5 -175 -7 -169 -153 89 -326 281 -421 470 -124 248 -134 552 -26
766 35 70 118 162 184 204 113 72 278 105 359 71z m341 -1365 c70 -41 139
-112 172 -178 41 -84 44 -203 9 -296 -49 -129 -134 -244 -386 -517 -150 -163
-225 -252 -249 -299 -17 -31 -16 -111 3 -154 8 -20 32 -55 54 -79 l40 -43 3
-143 c2 -78 2 -142 -1 -142 -3 0 -33 22 -66 49 -154 125 -257 342 -239 501 20
179 97 311 370 636 214 253 212 249 221 502 4 105 10 192 13 192 3 0 29 -13
56 -29z m-119 -1118 c-3 -98 -11 -347 -16 -553 -6 -206 -15 -397 -22 -425 -15
-68 -39 -121 -90 -202 l-43 -68 -7 55 c-7 54 -34 648 -44 970 l-6 165 109 117
c59 64 112 117 117 117 5 1 6 -76 2 -176z m119 -740 c64 -75 95 -147 95 -219
0 -123 -59 -233 -223 -416 -53 -59 -109 -127 -123 -150 -93 -147 -112 -322
-56 -495 21 -61 36 -213 22 -213 -13 0 -69 93 -95 159 -43 110 -59 206 -60
346 0 181 23 244 174 474 124 191 150 276 151 492 0 58 3 109 6 112 9 8 64
-38 109 -90z m-159 -735 c-3 -13 -8 -174 -11 -358 -10 -498 -19 -657 -40 -708
-10 -24 -20 -41 -22 -38 -6 5 -42 775 -43 892 0 79 1 83 43 144 55 83 61 90
70 90 4 0 5 -10 3 -22z m65 -833 c25 -53 24 -138 -1 -193 -20 -43 -119 -155
-154 -174 -18 -10 -18 -9 1 18 67 95 93 184 93 323 l0 104 21 -19 c12 -10 30
-37 40 -59z m-101 -441 c0 -64 -3 -85 -12 -82 -8 3 -16 32 -21 68 -6 52 -5 66
9 81 9 11 19 19 21 19 1 0 3 -39 3 -86z"/>
<path d="M3806 6351 c-10 -16 31 -51 59 -51 25 0 25 1 9 25 -9 14 -20 25 -24
25 -5 0 -15 3 -23 6 -8 3 -18 1 -21 -5z"/>
</g>
</svg>
